<?xml version="1.0" standalone="no"?><svg xmlns:xlink="http://www.w3.org/1999/xlink" xmlns="http://www.w3.org/2000/svg" viewBox="0 0 1000 1714.3100056808742" preserveAspectRatio="xMaxYMax slice"><g transform="scale(3.8645401390461545)"><rect x="0" y="0" width="258.76666666666665" height="443.6" fill="#fafafa"/><polygon points="0,0 36.97,0 36.97,36.97" fill="#e8f4f0"/><polygon points="36.97,0 73.94,36.97 36.97,36.97" fill="#b8e4d6"/><polygon points="110.9,0 110.9,36.97 73.93,36.97" fill="#f08d9d"/><polygon points="110.9,0 147.87,36.97 110.9,36.97" fill="#f3a7b3"/><polygon points="147.87,0 184.84,36.97 147.87,36.97" fill="#f4b4be"/><polygon points="184.83,0 221.8,36.97 184.83,36.97" fill="#f9ecee"/><polygon points="221.8,0 258.77,0 258.77,36.97" fill="#d7eee7"/><polygon points="0,36.97 36.97,73.94 0,73.94" fill="#ef8091"/><polygon points="36.97,36.97 73.94,36.97 36.97,73.94" fill="#f08999"/><polygon points="110.9,36.97 110.9,73.94 73.93,73.94" fill="#fafafa"/><polygon points="110.9,36.97 147.87,36.97 110.9,73.94" fill="#dbf0e9"/><polygon points="184.84,36.97 184.84,73.94 147.87,73.94" fill="#bcaee3"/><polygon points="221.8,36.97 221.8,73.94 184.83,73.94" fill="#f7d8dd"/><polygon points="221.8,36.97 258.77,73.94 221.8,73.94" fill="#c4b7e6"/><polygon points="0,73.93 36.97,73.93 0,110.9" fill="#e5f3ee"/><polygon points="36.97,73.93 73.94,73.93 73.94,110.9" fill="#f1eff7"/><polygon points="110.9,73.93 110.9,110.9 73.93,110.9" fill="#f9edef"/><polygon points="147.87,73.93 147.87,110.9 110.9,110.9" fill="#c8e9de"/><polygon points="147.87,73.93 184.84,110.9 147.87,110.9" fill="#f3a5b1"/><polygon points="184.83,73.93 221.8,73.93 221.8,110.9" fill="#dcd5ef"/><polygon points="221.8,73.93 258.77,73.93 221.8,110.9" fill="#f3abb6"/><polygon points="36.97,110.9 36.97,147.87 0,147.87" fill="#f193a2"/><polygon points="36.97,110.9 73.94,147.87 36.97,147.87" fill="#d2c9eb"/><polygon points="73.93,110.9 110.9,110.9 110.9,147.87" fill="#967fd5"/><polygon points="110.9,110.9 147.87,147.87 110.9,147.87" fill="#f08d9d"/><polygon points="147.87,110.9 184.84,147.87 147.87,147.87" fill="#c9eadf"/><polygon points="221.8,110.9 221.8,147.87 184.83,147.87" fill="#dbd4ee"/><polygon points="221.8,110.9 258.77,110.9 221.8,147.87" fill="#f6c9d0"/><polygon points="0,147.87 36.97,147.87 36.97,184.84" fill="#caeadf"/><polygon points="36.97,147.87 73.94,147.87 36.97,184.84" fill="#e1f2ec"/><polygon points="73.93,147.87 110.9,147.87 73.93,184.84" fill="#ceebe2"/><polygon points="110.9,147.87 147.87,147.87 147.87,184.84" fill="#ef7f91"/><polygon points="147.87,147.87 184.84,147.87 147.87,184.84" fill="#c7e9de"/><polygon points="184.83,147.87 221.8,147.87 184.83,184.84" fill="#a592da"/><polygon points="221.8,147.87 258.77,147.87 258.77,184.84" fill="#bce5d8"/><polygon points="36.97,184.83 36.97,221.8 0,221.8" fill="#a896dc"/><polygon points="36.97,184.83 73.94,221.8 36.97,221.8" fill="#f08495"/><polygon points="110.9,184.83 110.9,221.8 73.93,221.8" fill="#c9eadf"/><polygon points="110.9,184.83 147.87,221.8 110.9,221.8" fill="#b7a8e1"/><polygon points="147.87,184.83 184.84,221.8 147.87,221.8" fill="#a592da"/><polygon points="184.83,184.83 221.8,184.83 221.8,221.8" fill="#c8e9de"/><polygon points="221.8,184.83 258.77,184.83 221.8,221.8" fill="#ef7c8e"/><polygon points="36.97,221.8 36.97,258.77 0,258.77" fill="#f4b4be"/><polygon points="73.94,221.8 73.94,258.77 36.97,258.77" fill="#bfe6d9"/><polygon points="110.9,221.8 110.9,258.77 73.93,258.77" fill="#ceebe2"/><polygon points="147.87,221.8 147.87,258.77 110.9,258.77" fill="#f4b8c2"/><polygon points="147.87,221.8 184.84,258.77 147.87,258.77" fill="#f9ebed"/><polygon points="184.83,221.8 221.8,221.8 221.8,258.77" fill="#f3afba"/><polygon points="258.77,221.8 258.77,258.77 221.8,258.77" fill="#f7f7f9"/><polygon points="0,258.77 36.97,258.77 0,295.74" fill="#f6d1d7"/><polygon points="73.94,258.77 73.94,295.74 36.97,295.74" fill="#f29fac"/><polygon points="73.93,258.77 110.9,258.77 73.93,295.74" fill="#f8e2e6"/><polygon points="147.87,258.77 147.87,295.74 110.9,295.74" fill="#fafafa"/><polygon points="147.87,258.77 184.84,258.77 147.87,295.74" fill="#f08596"/><polygon points="221.8,258.77 221.8,295.74 184.83,295.74" fill="#947dd4"/><polygon points="221.8,258.77 258.77,295.74 221.8,295.74" fill="#ccc1e9"/><polygon points="36.97,295.73 36.97,332.70000000000005 0,332.70000000000005" fill="#d2ede4"/><polygon points="36.97,295.73 73.94,295.73 73.94,332.70000000000005" fill="#fafafa"/><polygon points="73.93,295.73 110.9,332.70000000000005 73.93,332.70000000000005" fill="#9d88d7"/><polygon points="110.9,295.73 147.87,295.73 147.87,332.70000000000005" fill="#f3aab5"/><polygon points="184.84,295.73 184.84,332.70000000000005 147.87,332.70000000000005" fill="#f3a9b5"/><polygon points="184.83,295.73 221.8,295.73 184.83,332.70000000000005" fill="#d2c9eb"/><polygon points="221.8,295.73 258.77,332.70000000000005 221.8,332.70000000000005" fill="#f9f9fa"/><polygon points="0,332.7 36.97,369.66999999999996 0,369.66999999999996" fill="#f0eef6"/><polygon points="36.97,332.7 73.94,369.66999999999996 36.97,369.66999999999996" fill="#cfece3"/><polygon points="73.93,332.7 110.9,369.66999999999996 73.93,369.66999999999996" fill="#f5c3cb"/><polygon points="110.9,332.7 147.87,332.7 110.9,369.66999999999996" fill="#896fd0"/><polygon points="147.87,332.7 184.84,332.7 184.84,369.66999999999996" fill="#f5bcc5"/><polygon points="184.83,332.7 221.8,332.7 221.8,369.66999999999996" fill="#f4b0bb"/><polygon points="221.8,332.7 258.77,332.7 258.77,369.66999999999996" fill="#b6a7e1"/><polygon points="36.97,369.67 36.97,406.64 0,406.64" fill="#f8f8f9"/><polygon points="36.97,369.67 73.94,369.67 73.94,406.64" fill="#cabfe8"/><polygon points="73.93,369.67 110.9,406.64 73.93,406.64" fill="#c1e7db"/><polygon points="110.9,369.67 147.87,369.67 110.9,406.64" fill="#f2a4b0"/><polygon points="184.84,369.67 184.84,406.64 147.87,406.64" fill="#b5e3d4"/><polygon points="221.8,369.67 221.8,406.64 184.83,406.64" fill="#b2a2df"/><polygon points="221.8,369.67 258.77,369.67 221.8,406.64" fill="#faf7f8"/><polygon points="0,406.63 36.97,443.6 0,443.6" fill="#ceebe2"/><polygon points="36.97,406.63 73.94,443.6 36.97,443.6" fill="#c8bde7"/><polygon points="73.93,406.63 110.9,406.63 73.93,443.6" fill="#d7eee7"/><polygon points="147.87,406.63 147.87,443.6 110.9,443.6" fill="#faf8f8"/><polygon points="147.87,406.63 184.84,443.6 147.87,443.6" fill="#9881d5"/><polygon points="184.83,406.63 221.8,406.63 221.8,443.6" fill="#e2f2ed"/><polygon points="221.8,406.63 258.77,406.63 258.77,443.6" fill="#d2ede4"/></g></svg>